<?xml version="1.0" standalone="no"?><!DOCTYPE svg PUBLIC "-//W3C//DTD SVG 1.1//EN" "http://www.w3.org/Graphics/SVG/1.1/DTD/svg11.dtd"><svg t="1618799046326" class="icon" viewBox="0 0 1024 1024" version="1.1" xmlns="http://www.w3.org/2000/svg" p-id="2894" width="600" height="600" xmlns:xlink="http://www.w3.org/1999/xlink"><defs><style type="text/css"></style></defs><path d="M320 405.333333a106.666667 106.666667 0 1 0 0-213.333333 106.666667 106.666667 0 0 0 0 213.333333z m0 85.333334a192 192 0 1 0 0-384 192 192 0 0 0 0 384zM725.333333 448a85.333333 85.333333 0 1 0 0-170.666667 85.333333 85.333333 0 0 0 0 170.666667z m0 85.333333a170.666667 170.666667 0 1 0 0-341.333333 170.666667 170.666667 0 0 0 0 341.333333zM462.656 618.666667H202.730667a85.333333 85.333333 0 0 0-84.48 73.322666L98.325333 832h478.890667l-31.104-145.813333A85.333333 85.333333 0 0 0 462.656 618.666667z m166.912 49.706666A170.666667 170.666667 0 0 0 462.656 533.333333H202.730667a170.666667 170.666667 0 0 0-168.96 146.645334L0 917.333333h682.666667l-53.12-248.96zM1024 917.333333l-43.2-205.738666A170.666667 170.666667 0 0 0 813.76 576h-123.328c4.501333 7.808 7.829333 16.426667 9.706667 25.664L712.277333 661.333333h101.504a85.333333 85.333333 0 0 1 83.498667 67.797334L918.890667 832h-171.882667l17.344 85.333333H1024z" fill="fill" p-id="2895"></path></svg>
